<svg width="17" height="18" viewBox="0 0 17 18" fill="none" xmlns="http://www.w3.org/2000/svg">
<path d="M8.5 0C13.1871 0 17 4.03714 17 9C17 13.9629 13.1871 18 8.5 18C3.81286 18 0 13.9629 0 9C0 4.03714 3.81286 0 8.5 0ZM8.5 16.7143C12.5171 16.7143 15.7857 13.2542 15.7857 9C15.7857 4.74665 12.5171 1.28571 8.5 1.28571C4.48295 1.28571 1.21428 4.74665 1.21428 9C1.21428 13.2542 4.48295 16.7143 8.5 16.7143ZM5.0658 6.27264L7.64165 9L5.0658 11.7274C4.94741 11.8527 4.88822 12.0175 4.88822 12.1822C4.88822 12.3469 4.94741 12.5108 5.0658 12.637C5.1842 12.7623 5.33979 12.825 5.49535 12.825C5.65093 12.825 5.80576 12.7623 5.9249 12.637L8.49996 9.9088L11.0758 12.6362C11.1942 12.7615 11.3498 12.8242 11.5053 12.8242C11.6609 12.8242 11.8158 12.7615 11.9349 12.6362C12.0533 12.5108 12.1125 12.3461 12.1125 12.1814C12.1125 12.0166 12.0533 11.8527 11.9349 11.7265L9.35905 8.99918L11.9349 6.27182C12.0533 6.14646 12.1125 5.98172 12.1125 5.817C12.1125 5.65227 12.0533 5.48833 11.9349 5.36219C11.6981 5.11146 11.3133 5.11146 11.0765 5.36219L8.49992 8.0912L5.92408 5.36384C5.68729 5.11311 5.30252 5.11311 5.06573 5.36384C4.94733 5.48919 4.88814 5.65393 4.88814 5.81865C4.88738 5.98258 4.94665 6.1473 5.0658 6.27264Z" fill="#F9F4EC"/>
</svg>
